# xmcd
#
# Track frame offsets: 
#        150
#        102195
#        177343
#
# Disc length: 2596 seconds
#
# Revision: 0
# Processed by: cddbd v1.5.2PL0 Copyright (c) Steve Scherf et al.
# Submitted via: ExactAudioCopy v0.99pb5
#
DISCID=1d0a2203
DTITLE=송암스님 - 한국의 범패 시리즈 7
DYEAR=1900
DGENRE=범패
TTITLE0=지심 - 짓소리 - 송암스님
TTITLE1=삼귀의 홋소리(나비무) - 송암스님
TTITLE2=중직찬 - 홋소리 - 송암스님
EXTD=
EXTT0=
EXTT1=
EXTT2=
PLAYORDER=
